# xmcd
#
# Track frame offsets:
# 150
# 6231
# 11579
# 17091
# 22096
# 27704
# 32944
# 37978
# 43087
# 49348
# 55220
# 59918
# 64972
# 71040
# 76019
# 81673
# 86255
# 91095
# 96725
# 100719
# 106506
# 111872
# 117476
# 123550
# 129429
# 134241
# 142123
# 146260
# 151140
# 157374
# 163201
# 169032
# 173660
# 180675
# 185621
# 190524
# 195780
# 201698
# 207050
# 212993
# 218774
# 224613
# 229668
# 234096
# 239739
# 245437
# 252762
# 258860
# 264375
# 270211
# 275031
# 280674
# 287768
# 292966
# 297587
# 303287
# 309306
# 314232
# 319664
#
# Disc length: 4334 seconds
#
#
# Revision: 0
# Processed by: cddbd v1.5.2PL0 Copyright (c) Steve Scherf et al.
# Submitted via: FreeRIP 2.96 
#
DISCID=8110ec3b
DTITLE=Joanne K. Rowling - Harry Potter and the Deathly Hallows CD13
DYEAR=2007
DGENRE=Audio Book
TTITLE0=740 Malfoy Manor 32
TTITLE1=741 Malfoy Manor 33
TTITLE2=742 Malfoy Manor 34
TTITLE3=743 Malfoy Manor 35
TTITLE4=744 Malfoy Manor 36
TTITLE5=745 Malfoy Manor 37
TTITLE6=746 Malfoy Manor 38
TTITLE7=747 Malfoy Manor 39
TTITLE8=748 Malfoy Manor 40
TTITLE9=749 Malfoy Manor 41
TTITLE10=750 Malfoy Manor 42
TTITLE11=751 Malfoy Manor 43
TTITLE12=752 Malfoy Manor 44
TTITLE13=753 Malfoy Manor 45
TTITLE14=754 Malfoy Manor 46
TTITLE15=755 Malfoy Manor 47
TTITLE16=756 Malfoy Manor 48
TTITLE17=757 Malfoy Manor 49
TTITLE18=758 Malfoy Manor 50
TTITLE19=759 Malfoy Manor 51
TTITLE20=760 The Wandmaker 1
TTITLE21=761 The Wandmaker 2
TTITLE22=762 The Wandmaker 3
TTITLE23=763 The Wandmaker 4
TTITLE24=764 The Wandmaker 5
TTITLE25=765 The Wandmaker 6
TTITLE26=766 The Wandmaker 7
TTITLE27=767 The Wandmaker 8
TTITLE28=768 The Wandmaker 9
TTITLE29=769 The Wandmaker 10
TTITLE30=770 The Wandmaker 11
TTITLE31=771 The Wandmaker 12
TTITLE32=772 The Wandmaker 13
TTITLE33=773 The Wandmaker 14
TTITLE34=774 The Wandmaker 15
TTITLE35=775 The Wandmaker 16
TTITLE36=776 The Wandmaker 17
TTITLE37=777 The Wandmaker 18
TTITLE38=778 The Wandmaker 19
TTITLE39=779 The Wandmaker 20
TTITLE40=780 The Wandmaker 21
TTITLE41=781 The Wandmaker 22
TTITLE42=782 The Wandmaker 23
TTITLE43=783 The Wandmaker 24
TTITLE44=784 The Wandmaker 25
TTITLE45=785 The Wandmaker 26
TTITLE46=786 The Wandmaker 27
TTITLE47=787 The Wandmaker 28
TTITLE48=788 The Wandmaker 29
TTITLE49=789 The Wandmaker 30
TTITLE50=790 The Wandmaker 31
TTITLE51=791 The Wandmaker 32
TTITLE52=792 The Wandmaker 33
TTITLE53=793 The Wandmaker 34
TTITLE54=794 The Wandmaker 35
TTITLE55=795 The Wandmaker 36
TTITLE56=796 The Wandmaker 37
TTITLE57=797 The Wandmaker 38
TTITLE58=798 The Wandmaker 39
EXTD=read by Steven Fry
EXTT0=
EXTT1=
EXTT2=
EXTT3=
EXTT4=
EXTT5=
EXTT6=
EXTT7=
EXTT8=
EXTT9=
EXTT10=
EXTT11=
EXTT12=
EXTT13=
EXTT14=
EXTT15=
EXTT16=
EXTT17=
EXTT18=
EXTT19=
EXTT20=
EXTT21=
EXTT22=
EXTT23=
EXTT24=
EXTT25=
EXTT26=
EXTT27=
EXTT28=
EXTT29=
EXTT30=
EXTT31=
EXTT32=
EXTT33=
EXTT34=
EXTT35=
EXTT36=
EXTT37=
EXTT38=
EXTT39=
EXTT40=
EXTT41=
EXTT42=
EXTT43=
EXTT44=
EXTT45=
EXTT46=
EXTT47=
EXTT48=
EXTT49=
EXTT50=
EXTT51=
EXTT52=
EXTT53=
EXTT54=
EXTT55=
EXTT56=
EXTT57=
EXTT58=
PLAYORDER=
